<?xml version="1.0" encoding="utf-8"?>
<!-- Generator: Adobe Illustrator 16.0.0, SVG Export Plug-In . SVG Version: 6.00 Build 0)  -->
<!DOCTYPE svg PUBLIC "-//W3C//DTD SVG 1.1//EN" "http://www.w3.org/Graphics/SVG/1.1/DTD/svg11.dtd">
<svg version="1.1" id="Layer_1" xmlns="http://www.w3.org/2000/svg" xmlns:xlink="http://www.w3.org/1999/xlink" x="0px" y="0px"
	 width="155px" height="155px" viewBox="0 0 155 155" enable-background="new 0 0 155 155" xml:space="preserve">
<g>
	<circle fill="#546477" cx="77.5" cy="77.5" r="77.5"/>
	<g>
		<g>
			<rect x="36.245" y="21.543" fill="#FFFFFF" width="82.51" height="116.693"/>
			<g>
				<g>
					<g>
						<g>
							<g>
								<rect x="57.825" y="90.684" fill="#E6E5E5" width="1.873" height="3.744"/>
								<rect x="48.461" y="96.307" fill="#E6E5E5" width="1.868" height="3.743"/>
								<rect x="67.194" y="96.307" fill="#E6E5E5" width="1.872" height="3.743"/>
								<rect x="48.461" y="94.428" fill="#E6E5E5" width="20.605" height="1.879"/>
							</g>
							<g>
								<rect x="76.562" y="71.943" fill="#E6E5E5" width="1.877" height="3.746"/>
								<rect x="57.825" y="77.566" fill="#E6E5E5" width="1.873" height="3.747"/>
								<rect x="95.302" y="77.566" fill="#E6E5E5" width="1.876" height="3.747"/>
								<rect x="57.825" y="75.689" fill="#E6E5E5" width="39.353" height="1.877"/>
							</g>
							<g>
								<rect x="95.302" y="90.684" fill="#E6E5E5" width="1.876" height="3.744"/>
								<rect x="85.93" y="96.307" fill="#E6E5E5" width="1.879" height="3.743"/>
								<rect x="104.673" y="96.307" fill="#E6E5E5" width="1.872" height="3.743"/>
								<rect x="85.93" y="94.428" fill="#E6E5E5" width="20.615" height="1.879"/>
							</g>
						</g>
					</g>
					<g>
						<g>
							<rect x="44.71" y="100.05" fill="#CCCBCA" width="9.369" height="9.37"/>
							<rect x="47.053" y="103.8" fill="#FFFFFF" width="4.687" height="1.877"/>
						</g>
						<g>
							<rect x="63.45" y="100.05" fill="#CCCBCA" width="9.368" height="9.37"/>
							<rect x="65.793" y="103.8" fill="#FFFFFF" width="4.683" height="1.877"/>
						</g>
						<g>
							<rect x="82.188" y="100.05" fill="#CCCBCA" width="9.373" height="9.37"/>
							<rect x="84.529" y="103.8" fill="#FFFFFF" width="4.686" height="1.877"/>
						</g>
						<g>
							<rect x="100.928" y="100.05" fill="#CCCBCA" width="9.37" height="9.37"/>
							<rect x="103.271" y="103.8" fill="#FFFFFF" width="4.687" height="1.877"/>
						</g>
					</g>
					<g>
						<g>
							<rect x="49.396" y="81.313" fill="#242D3C" width="18.739" height="9.371"/>
							<rect x="53.147" y="85.059" fill="#FFFFFF" width="11.237" height="1.877"/>
						</g>
						<g>
							<rect x="86.876" y="81.313" fill="#242D3C" width="18.735" height="9.371"/>
							<rect x="90.615" y="85.059" fill="#FFFFFF" width="11.246" height="1.877"/>
						</g>
					</g>
					<g>
						<rect x="68.135" y="58.827" fill="#F15424" width="18.741" height="13.116"/>
						<rect x="71.88" y="66.321" fill="#FFFFFF" width="11.241" height="1.874"/>
						<rect x="71.88" y="62.573" fill="#FFFFFF" width="11.241" height="1.876"/>
					</g>
				</g>
				<g>
					<rect x="44.71" y="116.48" fill="#CCCBCA" width="65.588" height="1.881"/>
					<rect x="44.71" y="121.186" fill="#CCCBCA" width="65.588" height="1.883"/>
					<rect x="44.71" y="125.889" fill="#CCCBCA" width="32.794" height="1.883"/>
				</g>
				<g>
					<rect x="44.71" y="40.473" fill="#242D3C" width="65.588" height="1.881"/>
					<rect x="44.71" y="32.008" fill="#F15424" width="65.588" height="5.642"/>
					<rect x="44.71" y="45.18" fill="#CCCBCA" width="65.588" height="1.881"/>
					<rect x="44.71" y="49.881" fill="#CCCBCA" width="32.794" height="1.886"/>
				</g>
			</g>
		</g>
		<g>
			<circle fill="#CCCBCA" cx="118.756" cy="130.96" r="21.543"/>
			<path fill="#FFFFFF" d="M140.986,137.029c-0.156,0.574-0.529,1.09-1.088,1.406c-0.561,0.316-1.193,0.381-1.769,0.225
				l-6.739-1.838l1.226-4.493l6.737,1.839c0.576,0.157,1.094,0.533,1.412,1.094C141.084,135.816,141.143,136.452,140.986,137.029z"
				/>
			<path fill="#D9D8D7" d="M132.616,132.329l-1.226,4.493l2.512,0.684c0.609-1.406,1.029-2.918,1.221-4.492L132.616,132.329z"/>
			<path fill="#FFFFFF" d="M133.313,130.96c0,8.04-6.521,14.554-14.559,14.554c-8.033,0-14.553-6.514-14.553-14.554
				c0-8.039,6.52-14.556,14.553-14.556C126.793,116.404,133.313,122.921,133.313,130.96z"/>
			<path fill="#FF6D3B" d="M130.982,130.96c0,6.751-5.471,12.228-12.229,12.228c-6.753,0-12.225-5.477-12.225-12.228
				s5.472-12.226,12.225-12.226C125.514,118.734,130.982,124.209,130.982,130.96z"/>
			<path fill="#F15424" d="M110.023,134.455c0-6.756,5.473-12.227,12.224-12.227c2.483,0,4.795,0.739,6.721,2.011
				c-2.187-3.314-5.94-5.505-10.213-5.505c-6.753,0-12.226,5.475-12.226,12.226c0,4.269,2.191,8.028,5.512,10.212
				C110.766,139.244,110.023,136.934,110.023,134.455z"/>
		</g>
		<g>
			<polygon fill="#FFFFFF" points="28.919,87.338 27.135,87.338 25.747,91.905 30.312,91.905 			"/>
			<polygon fill="#CCCBCA" points="28.919,87.338 28.357,87.338 28.876,91.905 30.312,91.905 			"/>
			<rect x="25.747" y="91.905" fill="#FF6D3B" width="4.564" height="54.228"/>
			<rect x="28.876" y="91.905" fill="#F15424" width="1.436" height="54.228"/>
			<polygon fill="#242D3C" points="28.919,87.338 28.027,84.405 27.13,87.338 			"/>
			<polygon fill="#131A26" points="28.919,87.338 28.027,84.405 28.356,87.338 			"/>
			<rect x="25.747" y="146.133" fill="#F2F2F2" width="4.564" height="2.647"/>
			<rect x="28.876" y="146.133" fill="#CCCBCA" width="1.436" height="2.647"/>
			<path fill="#242D3C" d="M30.312,150.218c0,0.584-0.229,1.169-0.672,1.614c-0.445,0.445-1.029,0.668-1.612,0.668l0,0
				c-0.585,0-1.171-0.223-1.615-0.668c-0.446-0.445-0.665-1.03-0.665-1.614v-1.438h4.564V150.218z"/>
			<path fill="#131A26" d="M28.876,148.78c0,0.585-0.229,1.171-0.674,1.616c-0.444,0.443-1.03,0.668-1.613,0.668
				c-0.239,0-0.482-0.049-0.723-0.123c0.111,0.322,0.286,0.629,0.546,0.891c0.444,0.445,1.03,0.668,1.615,0.668
				c0.583,0,1.167-0.223,1.612-0.668c0.443-0.445,0.672-1.03,0.672-1.614v-1.438H28.876z"/>
		</g>
		<g>
			<path fill="#FFD55C" d="M55.286,21.543c0,10.52-8.522,19.043-19.043,19.043c-10.519,0-19.038-8.523-19.038-19.043
				c0-10.517,8.52-19.043,19.038-19.043C46.764,2.5,55.286,11.026,55.286,21.543z"/>
			<path fill="#FFC640" d="M36.245,36.546c-4.226,0-8.276-1.812-11.13-4.963c-0.298-0.333-0.273-0.841,0.066-1.141
				c0.327-0.301,0.833-0.273,1.133,0.056c2.546,2.821,6.166,4.436,9.931,4.436c7.39,0,13.394-6.006,13.394-13.391
				c0-0.443,0.356-0.811,0.802-0.811c0.446,0,0.813,0.367,0.813,0.811C51.253,29.814,44.521,36.546,36.245,36.546z"/>
			<path fill="#FFF584" d="M22.05,22.35c-0.444,0-0.805-0.359-0.805-0.807c0-8.27,6.729-15.003,14.998-15.003
				c0.445,0,0.813,0.359,0.813,0.807c0,0.444-0.367,0.809-0.813,0.809c-7.377,0-13.383,6.005-13.383,13.388
				C22.86,21.99,22.494,22.35,22.05,22.35z"/>
			<rect x="27.68" y="38.49" fill="#FFC640" width="17.134" height="6.281"/>
			<rect x="30.889" y="56.652" fill="#CCCBCA" width="10.72" height="4.749"/>
			<rect x="26.727" y="44.771" fill="#242D3C" width="19.034" height="11.881"/>
			<rect x="25.747" y="46.092" fill="#131A26" width="21" height="1.32"/>
			<rect x="25.747" y="48.731" fill="#131A26" width="21" height="1.321"/>
			<rect x="25.747" y="51.371" fill="#131A26" width="21" height="1.321"/>
			<rect x="25.747" y="54.012" fill="#131A26" width="21" height="1.321"/>
			<g>
				<rect x="33.028" y="23.063" fill="#FFFFFF" width="0.813" height="21.709"/>
				<rect x="38.657" y="23.063" fill="#FFFFFF" width="0.804" height="21.709"/>
			</g>
			<rect x="29.379" y="22.254" fill="#FFFFFF" width="13.731" height="0.809"/>
		</g>
	</g>
</g>
</svg>
