<?xml version="1.0" encoding="utf-8"?>
<!-- Generator: Adobe Illustrator 16.0.0, SVG Export Plug-In . SVG Version: 6.00 Build 0)  -->
<!DOCTYPE svg PUBLIC "-//W3C//DTD SVG 1.1//EN" "http://www.w3.org/Graphics/SVG/1.1/DTD/svg11.dtd">
<svg version="1.1"
	 id="Layer_1" xmlns:cc="http://creativecommons.org/ns#" xmlns:dc="http://purl.org/dc/elements/1.1/" xmlns:sodipodi="http://sodipodi.sourceforge.net/DTD/sodipodi-0.dtd" xmlns:svg="http://www.w3.org/2000/svg" xmlns:rdf="http://www.w3.org/1999/02/22-rdf-syntax-ns#" xmlns:inkscape="http://www.inkscape.org/namespaces/inkscape"
	 xmlns="http://www.w3.org/2000/svg" xmlns:xlink="http://www.w3.org/1999/xlink" x="0px" y="0px" width="512px" height="512px"
	 viewBox="0 0 512 512" enable-background="new 0 0 512 512" xml:space="preserve">
<g id="g2990">
	<path id="path2989" fill="#3498DB" d="M512,256c0,141.385-114.615,256-256,256S0,397.385,0,256S114.615,0,256,0
		S512,114.615,512,256z"/>
	<g id="g3015">
		<polygon id="polygon3962" fill="#FFFFFF" points="345.373,386.023 366,162.589 146,162.589 166.624,386.023 256,410.09 		"/>
		<polygon id="polygon3968" fill="#FFFFFF" points="328.527,371.475 345.221,180.687 255.998,180.687 255.998,390.896 256.2,390.95 
					"/>
		<path id="path4016" fill="#FFFFFF" d="M190.723,143.041h33.955v-13.28h-19.402v-13.299h19.402v-14.552h-33.955V143.041z
			 M239.189,116.463c4.543,4.542,6.912,6.717,13.483,13.289c-3.84,0-13.483,0.014-13.483,0.013v13.276h33.958v-13.28l-13.563-13.299
			h13.563v-14.552h-33.958C239.189,101.911,239.189,109.214,239.189,116.463z M321.277,101.911h-33.96c0,0,0,7.304,0,14.553
			c4.543,4.542,6.913,6.717,13.484,13.289c-3.839,0-13.484,0.014-13.484,0.013v13.276h33.96v-13.28l-13.564-13.299h13.564V101.911z"
			/>
		<path id="path4169" fill="#379AD6" d="M186.102,207.693l4,27.25l69.5-0.5l-67,28.25l1.75,27h95l-2.25,35.5l-30.5,9.25l-31-8.5
			l-1.75-21.25h-27.25l3.5,41.75l55.75,16.25l56.75-15.75l7-84.25h-64.25l66.75-28.25l2-27L186.102,207.693z"/>
	</g>
</g>
<g id="Layer_1_1_">
</g>
</svg>
