<?xml version="1.0" ?><svg height="100" viewBox="0 0 100 100" width="100" xmlns="http://www.w3.org/2000/svg"><path d="M50 0c27.614 0 50 22.386 50 50s-22.386 50-50 50-50-22.387-50-50c0-27.615 22.386-50 50-50z" fill="#AAE1F3"/><path d="M33 36h34l-5 44h-24l-5-44z" fill="#F2F3F3"/><path d="M33 36l5 44h3l-5-44z" fill="#CECFCF"/><path d="M32 46h36l-2.75 22h-30.5l-2.75-22z" fill="#3DB39E"/><path d="M50 50c-3.865 0-7 3.134-7 7 0 3.867 3.135 7 7 7 3.867 0 7-3.133 7-7 0-3.865-3.133-7-7-7zm3.456 10.111c-.622-.346-1.444-.596-2.375-.709l.05-.373c.714-.398 1.203-1.152 1.203-2.029 0-1.289-1.045-2.334-2.334-2.334-1.288 0-2.333 1.045-2.333 2.334 0 .877.488 1.631 1.203 2.029l.049.373c-.931.113-1.752.363-2.374.709-.745-.826-1.211-1.91-1.211-3.111 0-2.576 2.089-4.666 4.666-4.666s4.667 2.09 4.667 4.666c0 1.201-.466 2.285-1.211 3.111z" fill="#EAEEEE"/><path d="M38 22h24c1.104 0 1.487.997 2 2l2 4c0 1.104-.896 2-2 2h-28c-1.104 0-2-.896-2-2l2-4c.504-.957.896-2 2-2z" fill="#41545F"/><path d="M31 28h38c1.104 0 2 .896 2 2v4c0 1.104-.896 2-2 2h-38c-1.104 0-2-.896-2-2v-4c0-1.105.896-2 2-2z" fill="#2B414D"/><path d="M10 80c9.122 12.143 23.643 20 40 20s30.879-7.857 40.001-20h-80.001z" fill="#324D5B"/><path d="M63.363 68h-26.727l.228 2h26.273z" fill="#D6DADC"/><path d="M32 46l2.75 22h3l-2.75-22z" fill="#37A18E"/><path d="M39.636 68h-3l.114 1 .114 1h3z" fill="#B6BABB"/><path d="M41.02.819c-.506 1.72-1.02 3.997-1.02 6.173 0 2.719 5 6.676 5 9.082 0 2.848-2 5.926-2 5.926h1s3-3.127 3-6.026c0-2.368-3-6.25-3-8.912 0-2.504 1.341-5.143 2.471-6.924-1.847.128-3.665.358-5.451.681z" fill="#fff"/></svg>