<?xml version="1.0" encoding="utf-8"?>
<!-- Generator: Adobe Illustrator 16.0.0, SVG Export Plug-In . SVG Version: 6.00 Build 0)  -->
<!DOCTYPE svg PUBLIC "-//W3C//DTD SVG 1.1//EN" "http://www.w3.org/Graphics/SVG/1.1/DTD/svg11.dtd">
<svg version="1.1"
	 id="Layer_1" xmlns:cc="http://creativecommons.org/ns#" xmlns:dc="http://purl.org/dc/elements/1.1/" xmlns:sodipodi="http://sodipodi.sourceforge.net/DTD/sodipodi-0.dtd" xmlns:svg="http://www.w3.org/2000/svg" xmlns:rdf="http://www.w3.org/1999/02/22-rdf-syntax-ns#" xmlns:inkscape="http://www.inkscape.org/namespaces/inkscape"
	 xmlns="http://www.w3.org/2000/svg" xmlns:xlink="http://www.w3.org/1999/xlink" x="0px" y="0px" width="512px" height="512px"
	 viewBox="0 0 512 512" enable-background="new 0 0 512 512" xml:space="preserve">
<g id="g2996" transform="translate(0.32800146,0.07000866)">
	<g id="g2987">
		<path id="path2989" fill="#E74C3C" d="M511.672,255.93c0,141.385-114.615,256-256,256s-256-114.615-256-256s114.615-256,256-256
			S511.672,114.545,511.672,255.93z"/>
	</g>
	<g id="g4311" transform="translate(546.9375,-48.721188)">
		<polygon id="polygon4184" fill="#FFFFFF" points="-291.401,459.916 -201.308,434.939 -181.266,210.412 -401.266,210.412 
			-381.245,434.975 		"/>
		<path id="path4208" fill="#FFFFFF" d="M-353.997,163.215h-12.803v-13.828h-13.996v41.875h13.996v-14.022h12.803v14.022h13.997
			v-41.875h-13.997L-353.997,163.215L-353.997,163.215z M-333.916,163.273h12.322v27.989h13.997v-27.989h12.328v-13.886h-38.646
			V163.273L-333.916,163.273z M-265.564,164.1l-8.979-14.714h-14.594v41.875h13.694v-20.756l9.636,14.89h0.241l9.629-14.89v20.756
			h13.938v-41.875h-14.6L-265.564,164.1z M-221.03,177.42v-28.034h-14.001v41.875h33.684V177.42H-221.03z"/>
		<path id="path4309" fill="#E44D26" d="M-360.828,255.68h138.25l-2.25,28.5h-105.75l3,27.5h99.5l-7,85.25l-56,15.25l-56.75-15.25
			l-4.25-43.5h27.75l2.25,21.5l30.75,8.75l30.75-8.75l3-35.25h-95.5L-360.828,255.68z"/>
	</g>
</g>
<g id="Layer_1_1_">
</g>
</svg>
