<?xml version="1.0" ?><!DOCTYPE svg  PUBLIC '-//W3C//DTD SVG 1.1//EN'  'http://www.w3.org/Graphics/SVG/1.1/DTD/svg11.dtd'><svg enable-background="new 0 0 512 512" height="512px" id="Layer_1" version="1.1" viewBox="0 0 512 512" width="512px" xml:space="preserve" xmlns="http://www.w3.org/2000/svg" xmlns:xlink="http://www.w3.org/1999/xlink"><circle cx="256.333" cy="256" fill="#82D0D8" r="256"/><path d="M172.333,260.954V408c0,4.4,3.6,8,8,8h56c4.4,0,8-3.6,8-8V193.876L172.333,260.954z" fill="#30A2B5"/><path d="M367.06,217.758c-0.798,1.008-1.719,1.912-2.726,2.714V408c0,4.4,3.6,8,8,8h56c4.4,0,8-3.6,8-8V130.448  L367.06,217.758z" fill="#1B7C96"/><path d="M76.333,223.406V408c0,4.4,3.6,8,8,8h56c4.4,0,8-3.6,8-8V263.269L76.333,223.406z" fill="#FF5F5F"/><path d="M268.333,185.124V408c0,4.4,3.6,8,8,8h56c4.4,0,8-3.6,8-8V220.383L268.333,185.124z" fill="#FFFFFF"/><path d="M496.444,9.25l-28.585,11.988c-4.058,1.702-10.696,4.49-14.752,6.196l-28.656,12.056  c-4.056,1.706-4.511,5.284-1.012,7.952l16.109,12.278c3.499,2.667,4.128,7.672,1.396,11.121l-86.938,107.904  c-2.732,3.45-8.199,4.689-12.151,2.754l-81.613-39.965c-3.952-1.935-9.819-1.064-13.038,1.935l-84.336,78.572  c-3.219,2.999-8.996,3.698-12.838,1.552L22.014,152.897c-3.388,7.689-6.409,15.572-9.04,23.635l140.649,76.523  c3.847,2.136,9.629,1.428,12.848-1.571l85.012-79.201c3.219-2.999,9.086-3.87,13.038-1.934l84.117,41.195  c3.952,1.935,9.42,0.696,12.152-2.753l99.243-123.404c2.732-3.449,7.83-4.089,11.33-1.422l13.962,10.641  c3.499,2.667,6.827,1.279,7.394-3.084l4.004-30.783c0.567-4.364,1.496-11.503,2.063-15.867l4.004-30.783  C503.357,9.726,500.501,7.548,496.444,9.25z" fill="#004259"/><g><path d="M17.216,164.558c1.505-3.933,3.104-7.819,4.796-11.657C20.32,156.739,18.721,160.625,17.216,164.558z" fill="#82D0D8"/><path d="M12.977,176.52c1.314-4.025,2.725-8.006,4.23-11.94C15.702,168.515,14.291,172.494,12.977,176.52z" fill="#82D0D8"/></g></svg>