<?xml version="1.0" encoding="utf-8"?>
<!-- Generator: Adobe Illustrator 16.0.0, SVG Export Plug-In . SVG Version: 6.00 Build 0)  -->
<!DOCTYPE svg PUBLIC "-//W3C//DTD SVG 1.1//EN" "http://www.w3.org/Graphics/SVG/1.1/DTD/svg11.dtd">
<svg version="1.1" id="Layer_1" xmlns="http://www.w3.org/2000/svg" xmlns:xlink="http://www.w3.org/1999/xlink" x="0px" y="0px"
	 width="54.951px" height="54.428px" viewBox="-1.188 -0.665 54.951 54.428" enable-background="new -1.188 -0.665 54.951 54.428"
	 xml:space="preserve">
<ellipse fill="#CB6898" cx="26.349" cy="26.58" rx="26.904" ry="26.958"/>
<path fill="#FFFFFF" d="M40.457,14.655c-0.115-0.638-0.362-1.255-0.775-1.822c-1.363-1.871-3.803-2.55-5.989-2.8
	c-2.491-0.285-5.063-0.124-7.499,0.47c-0.674,0.165-1.338,0.366-1.989,0.604c-1.542,0.564-2.979,1.384-4.34,2.298
	c-1.268,0.853-2.525,1.752-3.663,2.775c-1.441,1.296-2.595,2.945-3.279,4.764c-0.363,1.029-0.642,2.247-0.407,3.573
	c0.215,1.229,0.733,2.324,1.366,3.221c0.631,0.903,1.342,1.646,2.042,2.304c1.342,1.256,2.659,2.272,3.688,3.324
	c-0.39,0.16-0.784,0.328-1.188,0.518c-0.345,0.176-0.691,0.334-1.045,0.532c-0.352,0.223-0.666,0.451-0.98,0.697
	c-0.623,0.497-1.229,1.043-1.779,1.712c-0.542,0.668-1.076,1.441-1.318,2.49c-0.071,0.253-0.083,0.54-0.104,0.816
	c0.004,0.26,0.006,0.51,0.052,0.784c0.078,0.536,0.278,1.149,0.71,1.672c0.411,0.518,1.081,0.899,1.573,1.011
	c0.527,0.202,1.076,0.237,1.622,0.264c1.088-0.015,2.086-0.343,2.995-0.795c0.918-0.471,1.714-1.045,2.438-1.898
	c0.39-0.414,0.657-0.915,0.926-1.421c0.229-0.495,0.391-0.983,0.521-1.52c0.267-1.058,0.248-2.288-0.1-3.405
	c-0.121-0.4-0.289-0.771-0.475-1.125c0.193-0.065,0.396-0.144,0.58-0.199c1.612-0.485,3.694-0.587,5.229,0.217
	c0.435,0.229,0.786,0.549,1.166,0.853c0.283,0.229,0.45,0.548,0.643,0.848c0.428,0.668,0.396,1.582,0.123,2.3
	c-0.135,0.354-0.266,0.725-0.568,0.969c-0.118,0.098-0.813,0.417-0.724,0.655c0.077,0.205,0.347,0.398,1.134-0.073
	c1.668-1,1.878-3.244,0.96-4.819c-0.717-1.229-1.921-2.048-3.271-2.437c-0.734-0.21-1.536-0.337-2.301-0.362
	c-0.686-0.024-1.38,0.001-2.051,0.142c-0.195,0.041-1.759,0.588-1.808,0.525c-0.093-0.122-0.187-0.246-0.28-0.362
	c-1.359-1.587-2.901-2.748-4.203-3.994c-1.146-1.07-2.47-2.482-2.566-4.139c-0.117-2.01,1.614-3.938,2.943-5.248
	c0.432-0.425,0.893-0.821,1.371-1.19c2.151-1.661,4.792-2.976,7.361-3.839c0.73-0.246,1.478-0.454,2.232-0.619
	c1.054-0.229,2.159-0.346,3.237-0.344c1.52,0.001,3.042,0.257,4.305,1.163c0.781,0.562,1.197,1.417,1.173,2.378
	c-0.072,2.775-2.73,4.982-5.061,6.011c-2.619,1.158-6.114,2.164-8.209,1.208c-1.028-0.469-2.01-1.327-2.292-0.865
	c-0.209,0.342,2.04,1.854,2.266,1.976c2.046,1.102,5.287,0.795,7.769,0.045c2.74-0.828,5.225-2.621,6.727-5.077
	C40.2,18.012,40.751,16.267,40.457,14.655z M21.385,36.817c0,0.563-0.121,1.163-0.315,1.745c-0.224,0.489-0.428,0.914-0.825,1.317
	c-0.763,0.832-1.751,1.364-2.6,1.449c-0.111,0.032-0.207,0.004-0.31,0.002c-0.098-0.014-0.206,0.008-0.296-0.024
	c-0.171-0.063-0.402-0.104-0.479-0.16c-0.086-0.064-0.152-0.117-0.214-0.224c-0.053-0.116-0.114-0.269-0.141-0.479
	c-0.018-0.097-0.02-0.221-0.026-0.322c0.009-0.092-0.004-0.178,0.013-0.274c0.024-0.191,0.069-0.396,0.146-0.609
	c0.151-0.424,0.396-0.858,0.679-1.265c0.57-0.801,1.283-1.575,1.999-2.077c0.578-0.39,1.2-0.751,1.826-1.09
	C21.207,35.473,21.403,36.138,21.385,36.817z"/>
</svg>
