<?xml version="1.0" encoding="utf-8"?>
<!-- Generator: Adobe Illustrator 16.0.0, SVG Export Plug-In . SVG Version: 6.00 Build 0)  -->
<!DOCTYPE svg PUBLIC "-//W3C//DTD SVG 1.1//EN" "http://www.w3.org/Graphics/SVG/1.1/DTD/svg11.dtd">
<svg version="1.1" id="Layer_1" xmlns="http://www.w3.org/2000/svg" xmlns:xlink="http://www.w3.org/1999/xlink" x="0px" y="0px"
	 width="54.951px" height="54.428px" viewBox="0 0 54.951 54.428" enable-background="new 0 0 54.951 54.428" xml:space="preserve">
<ellipse fill="#CB6898" cx="26.905" cy="27.469" rx="26.903" ry="26.958"/>
<path fill="#FFFFFF" d="M41.155,15.544c-0.115-0.638-0.362-1.255-0.774-1.822c-1.363-1.871-3.804-2.55-5.99-2.8
	c-2.49-0.285-5.063-0.124-7.499,0.47c-0.674,0.165-1.338,0.366-1.989,0.604c-1.542,0.564-2.979,1.384-4.34,2.298
	c-1.268,0.853-2.525,1.752-3.663,2.775c-1.441,1.296-2.595,2.945-3.279,4.764c-0.363,1.029-0.642,2.247-0.407,3.573
	c0.215,1.229,0.733,2.323,1.366,3.22c0.631,0.904,1.342,1.646,2.042,2.305c1.342,1.256,2.659,2.271,3.688,3.324
	c-0.39,0.16-0.784,0.328-1.188,0.518c-0.345,0.176-0.691,0.334-1.045,0.533c-0.352,0.223-0.666,0.451-0.98,0.695
	c-0.623,0.498-1.229,1.045-1.779,1.713c-0.542,0.668-1.076,1.441-1.318,2.49c-0.071,0.252-0.083,0.539-0.104,0.816
	c0.004,0.26,0.006,0.51,0.052,0.783c0.078,0.537,0.278,1.148,0.71,1.672c0.411,0.518,1.081,0.898,1.573,1.012
	c0.527,0.201,1.076,0.236,1.622,0.264c1.088-0.016,2.086-0.344,2.995-0.795c0.918-0.471,1.714-1.045,2.438-1.898
	c0.39-0.414,0.657-0.914,0.926-1.42c0.229-0.496,0.391-0.984,0.521-1.521c0.267-1.057,0.248-2.287-0.1-3.404
	c-0.121-0.4-0.289-0.771-0.475-1.125c0.193-0.064,0.396-0.145,0.58-0.199c1.612-0.484,3.694-0.586,5.229,0.217
	c0.436,0.229,0.787,0.549,1.166,0.854c0.283,0.229,0.45,0.549,0.644,0.848c0.428,0.668,0.396,1.582,0.123,2.301
	c-0.136,0.354-0.267,0.725-0.568,0.969c-0.118,0.098-0.813,0.416-0.724,0.654c0.076,0.205,0.347,0.398,1.134-0.072
	c1.668-1,1.878-3.244,0.96-4.818c-0.717-1.23-1.921-2.049-3.271-2.438c-0.733-0.211-1.536-0.338-2.3-0.363
	c-0.687-0.023-1.381,0.002-2.052,0.143c-0.195,0.041-1.759,0.588-1.808,0.525c-0.093-0.123-0.187-0.246-0.28-0.361
	c-1.359-1.588-2.901-2.748-4.203-3.994c-1.146-1.07-2.47-2.482-2.566-4.139c-0.117-2.01,1.614-3.938,2.943-5.248
	c0.432-0.425,0.893-0.821,1.371-1.19c2.151-1.661,4.792-2.976,7.361-3.839c0.729-0.246,1.478-0.454,2.232-0.619
	c1.053-0.229,2.158-0.346,3.236-0.344c1.52,0.001,3.042,0.257,4.305,1.163c0.781,0.562,1.197,1.417,1.174,2.378
	c-0.072,2.775-2.73,4.982-5.062,6.011c-5.327,2.356-8.738,0.967-8.209,1.208c-1.028-0.469-2.01-1.327-2.292-0.865
	c-0.209,0.342,2.04,1.854,2.266,1.976c2.045,1.102,5.287,0.795,7.769,0.045c2.74-0.828,5.225-2.621,6.727-5.077
	C40.898,18.901,41.449,17.156,41.155,15.544z M22.083,37.706c0,0.563-0.121,1.162-0.315,1.744c-0.224,0.49-0.428,0.914-0.825,1.318
	c-0.763,0.832-1.751,1.363-2.6,1.449c-0.111,0.031-0.207,0.004-0.31,0.002c-0.098-0.016-0.206,0.008-0.296-0.025
	c-0.171-0.063-0.402-0.104-0.479-0.16c-0.086-0.063-0.152-0.117-0.214-0.223c-0.053-0.117-0.114-0.27-0.141-0.48
	c-0.018-0.096-0.02-0.221-0.026-0.32c0.009-0.094-0.004-0.18,0.013-0.275c0.024-0.189,0.069-0.395,0.146-0.607
	c0.151-0.426,0.396-0.859,0.679-1.266c0.57-0.801,1.283-1.576,1.999-2.078c0.578-0.389,1.2-0.75,1.826-1.09
	C21.905,36.362,22.101,37.026,22.083,37.706z"/>
</svg>
