<?xml version="1.0" encoding="utf-8"?>
<!-- Generator: Adobe Illustrator 16.0.0, SVG Export Plug-In . SVG Version: 6.00 Build 0)  -->
<!DOCTYPE svg PUBLIC "-//W3C//DTD SVG 1.1//EN" "http://www.w3.org/Graphics/SVG/1.1/DTD/svg11.dtd">
<svg version="1.1"
	 id="Layer_1" xmlns:cc="http://creativecommons.org/ns#" xmlns:dc="http://purl.org/dc/elements/1.1/" xmlns:sodipodi="http://sodipodi.sourceforge.net/DTD/sodipodi-0.dtd" xmlns:svg="http://www.w3.org/2000/svg" xmlns:rdf="http://www.w3.org/1999/02/22-rdf-syntax-ns#" xmlns:inkscape="http://www.inkscape.org/namespaces/inkscape"
	 xmlns="http://www.w3.org/2000/svg" xmlns:xlink="http://www.w3.org/1999/xlink" x="0px" y="0px" width="512px" height="512px"
	 viewBox="0 0 512 512" enable-background="new 0 0 512 512" xml:space="preserve">
<g id="g2996">
	<g id="g2987">
		<path id="path2989" fill="#E67E22" d="M511.672,255.93c0,141.384-114.615,256-256,256s-256-114.615-256-256
			c0-141.385,114.615-256,256-256S511.672,114.545,511.672,255.93z"/>
	</g>
	<path id="path3844" fill="#FFFFFF" d="M152.622,255.414c29.323,0,56.889,11.455,77.604,32.289
		c20.753,20.835,32.18,48.585,32.18,78.126h45.188c0-85.805-69.523-155.607-154.973-155.607V255.414L152.622,255.414z
		 M152.693,175.303c104.507,0,189.535,85.492,189.535,190.582h45.188c0-130.012-105.303-235.77-234.723-235.77V175.303
		L152.693,175.303z M215.181,334.316c0,17.281-14.017,31.299-31.298,31.299s-31.299-14.013-31.299-31.299
		c0-17.291,14.013-31.299,31.294-31.299S215.181,317.025,215.181,334.316L215.181,334.316z"/>
</g>
<g id="Layer_1_1_">
</g>
</svg>
