<?xml version="1.0" encoding="utf-8"?>
<!-- Generator: Adobe Illustrator 16.0.0, SVG Export Plug-In . SVG Version: 6.00 Build 0)  -->
<!DOCTYPE svg PUBLIC "-//W3C//DTD SVG 1.1//EN" "http://www.w3.org/Graphics/SVG/1.1/DTD/svg11.dtd">
<svg version="1.1" id="Layer_1" xmlns="http://www.w3.org/2000/svg" xmlns:xlink="http://www.w3.org/1999/xlink" x="0px" y="0px"
	 width="155px" height="155px" viewBox="0 0 155 155" enable-background="new 0 0 155 155" xml:space="preserve">
<g>
	<circle fill="#1ABC9C" cx="77.5" cy="77.5" r="77.5"/>
	<g>
		<rect x="39.418" y="51.945" fill="#FFFFFF" width="72.23" height="51.069"/>
		<g>
			<g>
				<rect x="83.242" y="84.859" fill="#FF6D3B" width="12.479" height="9.055"/>
				<g>
					<rect x="84.805" y="86.602" fill="#E64717" width="9.356" height="1.041"/>
					<rect x="84.805" y="91.129" fill="#E64717" width="5.536" height="1.041"/>
				</g>
			</g>
			<g>
				<rect x="55.346" y="84.859" fill="#16C6CC" width="12.48" height="4.524"/>
				<rect x="56.906" y="86.602" fill="#FFFFFF" width="9.359" height="1.041"/>
			</g>
			<g>
				<rect x="55.346" y="63.045" fill="#16C6CC" width="12.48" height="13.578"/>
				<g>
					<g>
						<rect x="61.586" y="64.785" fill="#FFFFFF" width="4.68" height="1.041"/>
						<rect x="56.906" y="64.785" fill="#FFFFFF" width="3.268" height="1.041"/>
						<rect x="56.906" y="69.313" fill="#FFFFFF" width="9.359" height="1.041"/>
						<rect x="56.906" y="73.84" fill="#FFFFFF" width="6.615" height="1.039"/>
					</g>
				</g>
			</g>
			<g>
				<rect x="83.242" y="63.045" fill="#242D3C" width="12.479" height="13.578"/>
				<g>
					<rect x="84.805" y="64.785" fill="#3E4959" width="9.356" height="1.041"/>
					<rect x="84.805" y="69.313" fill="#3E4959" width="5.704" height="1.041"/>
					<rect x="91.718" y="69.313" fill="#3E4959" width="2.443" height="1.041"/>
					<rect x="84.805" y="73.84" fill="#3E4959" width="4.156" height="1.039"/>
				</g>
			</g>
			<g>
				<rect x="67.826" y="69.313" fill="#D9D8D7" width="12.415" height="1.041"/>
				<rect x="88.961" y="76.623" fill="#D9D8D7" width="1.041" height="5.236"/>
				<rect x="61.067" y="79.623" fill="#D9D8D7" width="1.038" height="5.236"/>
				<polygon fill="#D9D8D7" points="59.854,79.623 61.586,76.623 63.319,79.623 				"/>
				<polygon fill="#D9D8D7" points="80.241,68.102 83.242,69.834 80.241,71.566 				"/>
				<polygon fill="#D9D8D7" points="91.215,81.859 89.482,84.859 87.75,81.859 				"/>
			</g>
		</g>
		<g>
			<circle fill="#FFD55C" cx="39.419" cy="51.988" r="14.419"/>
			<path fill="#FFC640" d="M39.418,63.35c-3.199,0-6.271-1.371-8.427-3.758c-0.226-0.252-0.208-0.639,0.046-0.865
				c0.249-0.225,0.636-0.207,0.862,0.045c1.925,2.133,4.667,3.355,7.519,3.355c5.59,0,10.14-4.547,10.14-10.139
				c0-0.336,0.273-0.613,0.61-0.613c0.338,0,0.611,0.277,0.611,0.613C50.779,58.252,45.682,63.35,39.418,63.35z"/>
			<path fill="#FFF785" d="M28.669,52.6c-0.337,0-0.611-0.273-0.611-0.611c0-6.264,5.095-11.361,11.359-11.361
				c0.338,0,0.612,0.273,0.612,0.611c0,0.338-0.274,0.613-0.612,0.613c-5.59,0-10.137,4.547-10.137,10.137
				C29.28,52.326,29.006,52.6,28.669,52.6z"/>
			<rect x="32.93" y="64.824" fill="#FFC640" width="12.974" height="4.756"/>
			<rect x="32.211" y="69.58" fill="#3E4959" width="14.413" height="8.996"/>
			<rect x="31.465" y="70.58" fill="#242D3C" width="15.904" height="0.998"/>
			<rect x="31.465" y="72.578" fill="#242D3C" width="15.904" height="1"/>
			<rect x="31.465" y="74.578" fill="#242D3C" width="15.904" height="1"/>
			<rect x="31.465" y="76.576" fill="#242D3C" width="15.904" height="1.002"/>
			<rect x="35.359" y="78.576" fill="#CCCBCA" width="8.118" height="3.596"/>
			<g>
				<rect x="36.983" y="53.139" fill="#FFFFFF" width="0.612" height="16.441"/>
				<rect x="41.242" y="53.139" fill="#FFFFFF" width="0.611" height="16.441"/>
			</g>
			<rect x="34.219" y="52.527" fill="#FFFFFF" width="10.398" height="0.611"/>
		</g>
		<g>
			<path fill="#E6E5E5" d="M130,103.012c0,0.562-0.213,1.119-0.641,1.545c-0.426,0.428-0.984,0.642-1.543,0.642h-5.683v-4.367h5.683
				c0.559,0,1.117,0.211,1.543,0.639C129.787,101.895,130,102.455,130,103.012L130,103.012z"/>
			<circle fill="#F2F2F2" cx="111.646" cy="103.012" r="14.42"/>
			<path fill="#FF6D3B" d="M122.573,103.012c0,6.035-4.892,10.926-10.927,10.926c-6.033,0-10.924-4.891-10.924-10.926
				c0-6.031,4.891-10.924,10.924-10.924C117.682,92.088,122.573,96.98,122.573,103.012z"/>
			<path fill="#E64717" d="M103.064,105.354c0-6.03,4.89-10.926,10.924-10.926c2.419,0,4.648,0.797,6.457,2.127
				c-1.987-2.703-5.184-4.467-8.799-4.467c-6.033,0-10.924,4.893-10.924,10.924c0,3.617,1.764,6.813,4.469,8.799
				C103.861,110.002,103.064,107.773,103.064,105.354z"/>
		</g>
		<g>
			<polygon fill="#FFFFFF" points="36.344,117.434 33.374,115.945 33.374,114.035 36.344,112.551 			"/>
			<rect x="36.344" y="112.551" fill="#242D3C" width="54.021" height="4.883"/>
			<rect x="36.344" y="112.551" fill="#3E4959" width="54.021" height="2.441"/>
			<polygon fill="#242D3C" points="33.374,115.945 31.465,114.994 33.374,114.035 			"/>
			<rect x="84.545" y="112.551" fill="#FFFFFF" width="1.725" height="4.883"/>
		</g>
	</g>
</g>
</svg>
