<?xml version="1.0" ?><!DOCTYPE svg  PUBLIC '-//W3C//DTD SVG 1.1//EN'  'http://www.w3.org/Graphics/SVG/1.1/DTD/svg11.dtd'><svg enable-background="new 0 0 155 155" height="155px" id="Layer_1" version="1.1" viewBox="0 0 155 155" width="155px" xml:space="preserve" xmlns="http://www.w3.org/2000/svg" xmlns:xlink="http://www.w3.org/1999/xlink"><g><circle cx="77.5" cy="77.5" fill="#21D8DE" r="77.5"/><g><rect fill="#FFFFFF" height="51.068" width="72.23" x="39.418" y="51.945"/><g><g><rect fill="#FF6D3B" height="9.055" width="12.479" x="83.242" y="84.859"/><g><rect fill="#E64717" height="1.041" width="9.357" x="84.804" y="86.602"/><rect fill="#E64717" height="1.041" width="5.537" x="84.804" y="91.129"/></g></g><g><rect fill="#16C6CC" height="4.525" width="12.48" x="55.346" y="84.859"/><rect fill="#FFFFFF" height="1.041" width="9.359" x="56.906" y="86.602"/></g><g><rect fill="#16C6CC" height="13.578" width="12.48" x="55.346" y="63.045"/><g><g><rect fill="#FFFFFF" height="1.041" width="4.68" x="61.586" y="64.785"/><rect fill="#FFFFFF" height="1.041" width="3.268" x="56.906" y="64.785"/><rect fill="#FFFFFF" height="1.041" width="9.359" x="56.906" y="69.313"/><rect fill="#FFFFFF" height="1.039" width="6.615" x="56.906" y="73.84"/></g></g></g><g><rect fill="#242D3C" height="13.578" width="12.479" x="83.242" y="63.045"/><g><rect fill="#3E4959" height="1.041" width="9.357" x="84.804" y="64.785"/><rect fill="#3E4959" height="1.041" width="5.705" x="84.804" y="69.313"/><rect fill="#3E4959" height="1.041" width="2.443" x="91.718" y="69.313"/><rect fill="#3E4959" height="1.039" width="4.157" x="84.804" y="73.84"/></g></g><g><rect fill="#D9D8D7" height="1.041" width="12.415" x="67.826" y="69.313"/><rect fill="#D9D8D7" height="5.236" width="1.041" x="88.961" y="76.623"/><rect fill="#D9D8D7" height="5.236" width="1.038" x="61.067" y="79.623"/><polygon fill="#D9D8D7" points="59.854,79.623 61.586,76.623 63.319,79.623     "/><polygon fill="#D9D8D7" points="80.241,68.102 83.242,69.834 80.241,71.566     "/><polygon fill="#D9D8D7" points="91.215,81.859 89.482,84.859 87.75,81.859     "/></g></g><g><circle cx="39.419" cy="51.988" fill="#FFD55C" r="14.419"/><path d="M39.418,63.35c-3.199,0-6.271-1.371-8.427-3.758c-0.226-0.252-0.208-0.639,0.046-0.865     c0.249-0.225,0.636-0.207,0.862,0.045c1.925,2.133,4.667,3.355,7.519,3.355c5.59,0,10.14-4.547,10.14-10.139     c0-0.336,0.273-0.613,0.61-0.613c0.338,0,0.611,0.277,0.611,0.613C50.779,58.252,45.682,63.35,39.418,63.35z" fill="#FFC640"/><path d="M28.669,52.6c-0.337,0-0.611-0.273-0.611-0.611c0-6.264,5.095-11.361,11.359-11.361     c0.338,0,0.612,0.273,0.612,0.611s-0.274,0.613-0.612,0.613c-5.59,0-10.137,4.547-10.137,10.137     C29.28,52.326,29.006,52.6,28.669,52.6z" fill="#FFF785"/><rect fill="#FFC640" height="4.756" width="12.974" x="32.93" y="64.824"/><rect fill="#3E4959" height="8.996" width="14.413" x="32.211" y="69.58"/><rect fill="#242D3C" height="0.998" width="15.904" x="31.465" y="70.58"/><rect fill="#242D3C" height="1" width="15.904" x="31.465" y="72.578"/><rect fill="#242D3C" height="1" width="15.904" x="31.465" y="74.578"/><rect fill="#242D3C" height="1.002" width="15.904" x="31.465" y="76.576"/><rect fill="#CCCBCA" height="3.596" width="8.118" x="35.359" y="78.576"/><g><rect fill="#FFFFFF" height="16.441" width="0.612" x="36.983" y="53.139"/><rect fill="#FFFFFF" height="16.441" width="0.611" x="41.242" y="53.139"/></g><rect fill="#FFFFFF" height="0.611" width="10.398" x="34.219" y="52.527"/></g><g><path d="M130,103.012c0,0.561-0.213,1.119-0.64,1.545c-0.427,0.428-0.985,0.641-1.544,0.641h-5.682v-4.367h5.682     c0.559,0,1.117,0.211,1.544,0.639C129.787,101.895,130,102.455,130,103.012L130,103.012z" fill="#E6E5E5"/><circle cx="111.647" cy="103.012" fill="#F2F2F2" r="14.42"/><path d="M122.573,103.012c0,6.035-4.892,10.926-10.926,10.926c-6.033,0-10.924-4.891-10.924-10.926     c0-6.031,4.891-10.924,10.924-10.924C117.682,92.088,122.573,96.98,122.573,103.012z" fill="#FF6D3B"/><path d="M103.064,105.354c0-6.031,4.89-10.926,10.925-10.926c2.418,0,4.647,0.797,6.457,2.127     c-1.988-2.703-5.185-4.467-8.799-4.467c-6.033,0-10.924,4.893-10.924,10.924c0,3.617,1.764,6.813,4.469,8.799     C103.861,110.002,103.064,107.773,103.064,105.354z" fill="#E64717"/></g><g><polygon fill="#FFFFFF" points="36.344,117.434 33.374,115.945 33.374,114.035 36.344,112.551    "/><rect fill="#242D3C" height="4.883" width="54.021" x="36.344" y="112.551"/><rect fill="#3E4959" height="2.441" width="54.021" x="36.344" y="112.551"/><polygon fill="#242D3C" points="33.374,115.945 31.465,114.994 33.374,114.035    "/><rect fill="#FFFFFF" height="4.883" width="1.725" x="84.545" y="112.551"/></g></g></g></svg>